<?xml version="1.0" encoding="UTF-8"?>
<svg id="Layer_1" data-name="Layer 1" xmlns="http://www.w3.org/2000/svg" viewBox="0 0 434.87 146.33">
  <defs>
    <style>
      .cls-1 {
        fill: #000;
        stroke-width: 0px;
      }
    </style>
  </defs>
  <path class="cls-1" d="m133.66,69.18h-41.18c-7.72,0-14-6.28-14-14V14c0-7.72,6.28-14,14-14h41.18c7.72,0,14,6.28,14,14v41.18c0,7.72-6.28,14-14,14ZM92.48,4c-5.51,0-10,4.49-10,10v41.18c0,5.51,4.49,10,10,10h41.18c5.51,0,10-4.49,10-10V14c0-5.51-4.49-10-10-10h-41.18Z"/>
  <path class="cls-1" d="m133.66,146.33h-41.18c-7.72,0-14-6.28-14-14v-41.18c0-7.72,6.28-14,14-14h41.18c7.72,0,14,6.28,14,14v41.18c0,7.72-6.28,14-14,14Zm-41.18-65.18c-5.51,0-10,4.49-10,10v41.18c0,5.51,4.49,10,10,10h41.18c5.51,0,10-4.49,10-10v-41.18c0-5.51-4.49-10-10-10,0,0-41.18,0-41.18,0Z"/>
  <path class="cls-1" d="m55.18,146.33H14c-7.72,0-14-6.28-14-14v-41.18c0-7.72,6.28-14,14-14h41.18c7.72,0,14,6.28,14,14v41.18c0,7.72-6.28,14-14,14ZM14,81.15c-5.51,0-10,4.49-10,10v41.18c0,5.51,4.49,10,10,10h41.18c5.51,0,10-4.49,10-10v-41.18c0-5.51-4.49-10-10-10,0,0-41.18,0-41.18,0Z"/>
  <path class="cls-1" d="m210.36,146.33h-41.18c-7.72,0-14-6.28-14-14v-41.18c0-7.72,6.28-14,14-14h41.18c7.72,0,14,6.28,14,14v41.18c0,7.72-6.28,14-14,14Zm-41.18-65.18c-5.51,0-10,4.49-10,10v41.18c0,5.51,4.49,10,10,10h41.18c5.51,0,10-4.49,10-10v-41.18c0-5.51-4.49-10-10-10,0,0-41.18,0-41.18,0Z"/>
  <path class="cls-1" d="m379.77,146.22c-15.23,0-29.12-7.02-39.12-19.76-10.46-13.34-15.99-31.77-15.99-53.3,0-23.9,5.39-42.51,16.02-55.33C350.3,6.23,363.82.1,379.77.1c20.58,0,55.1,9.49,55.1,73.06,0,48.48-18.54,73.06-55.11,73.06Zm0-142.33c-32.13,0-51.31,25.9-51.31,69.27,0,40.78,21.1,69.27,51.31,69.27,15.61,0,27.79-4.85,36.2-14.4,10.03-11.4,15.11-29.86,15.11-54.86,0-44.67-18.22-69.27-51.31-69.27Z"/>
  <g>
    <path class="cls-1" d="m327.57,56.5c48.65.04,105.41,0,105.41,0"/>
    <path class="cls-1" d="m376.38,58.41c-15.62,0-32.7,0-48.81-.02v-3.79c48.09.04,104.84,0,105.41,0v3.79c-.38,0-25.6.02-56.59.02Z"/>
  </g>
  <rect class="cls-1" x="377.87" y="2" width="3.79" height="54.5"/>
  <g>
    <path class="cls-1" d="m374.89,8.21v43.34h-40.79s5.6-41.35,40.79-43.34Z"/>
    <path class="cls-1" d="m376.14,52.8h-43.47l.19-1.42c.06-.42,6.15-42.39,41.96-44.42l1.32-.08v45.91h0Zm-40.56-2.5h38.05V9.55c-29,2.55-36.68,33.68-38.05,40.75Z"/>
  </g>
  <path class="cls-1" d="m90.29,12.85h1.52l1,3.67,1.11-3.67h1.23l1.1,3.66,1.01-3.66h1.52l-1.81,5.85h-1.28l-1.15-3.84-1.15,3.84h-1.29l-1.8-5.85Z"/>
  <path class="cls-1" d="m15.9,90.47c.38.2.67.49.87.86s.3.79.3,1.27v3.55h-1.18l-.09-.78c-.18.29-.44.51-.78.67s-.69.23-1.05.23c-.4,0-.76-.07-1.09-.23s-.58-.37-.76-.66-.28-.63-.28-1.03c0-.6.21-1.03.63-1.29s.99-.4,1.7-.4h1.59c-.01-.3-.06-.54-.13-.72s-.2-.31-.37-.39-.41-.13-.72-.13-.58.08-.82.23-.42.35-.56.6l-1.1-.79c.3-.41.65-.73,1.05-.95s.87-.33,1.42-.33c.52,0,.98.1,1.36.3Zm-.88,4.4c.22-.12.39-.28.52-.48s.21-.42.24-.66v-.05h-1.51c-.31,0-.54.07-.71.21s-.24.31-.24.5.08.36.24.48.4.18.71.18c.28,0,.53-.06.75-.18Z"/>
  <path class="cls-1" d="m91.74,96.04c-.34-.15-.62-.34-.85-.59s-.4-.52-.49-.83l1.14-.5c.1.27.25.5.44.69s.46.28.81.28c.21,0,.38-.04.52-.11s.25-.16.32-.27.1-.22.1-.32c0-.12-.05-.23-.14-.31s-.21-.15-.34-.2-.33-.11-.59-.17c-.39-.1-.7-.21-.95-.31s-.46-.27-.65-.5-.27-.53-.27-.9.1-.73.3-1,.46-.48.79-.61.69-.21,1.08-.21c.5,0,.93.11,1.31.33s.68.54.91.94l-1.11.6c-.12-.22-.27-.4-.45-.54s-.42-.21-.71-.21c-.23,0-.41.05-.55.15s-.21.22-.21.36c0,.11.04.2.13.28s.19.14.32.18.32.11.55.18c.4.11.73.23,1,.35s.49.3.68.55.29.57.29.98c0,.43-.11.79-.33,1.08s-.5.51-.85.65-.72.21-1.11.21c-.4,0-.77-.07-1.1-.22Z"/>
  <path class="cls-1" d="m170.58,95.85c-.38-.28-.67-.64-.87-1.11s-.3-.97-.3-1.53.1-1.06.3-1.52.49-.83.86-1.11.83-.42,1.35-.42c.33,0,.64.06.93.18s.54.29.73.53v-3.01h1.45v8.28h-1.33l-.06-.66c-.19.27-.44.46-.74.59s-.62.19-.96.19c-.53,0-.99-.14-1.37-.41Zm2.78-1.36c.24-.32.35-.74.35-1.27s-.12-.95-.36-1.27-.59-.48-1.06-.48-.82.16-1.07.49-.36.75-.36,1.26.12.94.36,1.27.6.49,1.07.49.83-.16,1.06-.48Z"/>
  <g>
    <rect class="cls-1" x="183.04" y="110.74" width="11.7" height="2"/>
    <g>
      <polygon class="cls-1" points="201.17 111.74 194.73 108.02 194.73 115.46 201.17 111.74"/>
      <path class="cls-1" d="m193.73,117.19v-10.9l9.44,5.45-9.44,5.45Zm2-7.43v3.97l3.44-1.99-3.44-1.99Z"/>
    </g>
  </g>
  <g>
    <rect class="cls-1" x="29.6" y="110.74" width="11.88" height="2"/>
    <g>
      <polygon class="cls-1" points="23.06 111.74 29.6 115.52 29.6 107.96 23.06 111.74"/>
      <path class="cls-1" d="m30.6,117.25l-9.54-5.51,9.54-5.51v11.02Zm-5.54-5.51l3.54,2.04v-4.09l-3.54,2.04Z"/>
    </g>
  </g>
  <g>
    <rect class="cls-1" x="112.07" y="103.41" width="2" height="11.88"/>
    <g>
      <polygon class="cls-1" points="113.07 121.84 116.85 115.3 109.29 115.3 113.07 121.84"/>
      <path class="cls-1" d="m113.07,123.84l-5.51-9.54h11.02l-5.51,9.54Zm-2.04-7.54l2.04,3.54,2.04-3.54h-4.09Z"/>
    </g>
  </g>
  <rect class="cls-1" x="112.07" y="31.92" width="2" height="11.88"/>
  <g>
    <polygon class="cls-1" points="113.07 25.38 109.29 31.92 116.85 31.92 113.07 25.38"/>
    <path class="cls-1" d="m118.58,32.92h-11.02l5.51-9.54,5.51,9.54Zm-7.55-2h4.09l-2.04-3.54-2.04,3.54Z"/>
  </g>
</svg>